<?xml version="1.0" encoding="UTF-8" standalone="no"?>
<svg width="407px" height="93px" viewBox="0 0 407 93" version="1.1" xmlns="http://www.w3.org/2000/svg" xmlns:xlink="http://www.w3.org/1999/xlink">
    <!-- Generator: Sketch 3.6.1 (26313) - http://www.bohemiancoding.com/sketch -->
    <title>logo-big</title>
    <desc>Created with Sketch.</desc>
    <defs></defs>
    <g id="Page-1" stroke="none" stroke-width="1" fill="none" fill-rule="evenodd">
        <g id="logo-big">
            <g id="Page-1">
                <g id="Sketch-Runner-Logo">
                    <g id="Logo">
                        <g id="logo-big">
                            <path d="M154.08,29.14 L154.08,91 L143.88,91 C141.759989,91 140.400003,90.0400096 139.8,88.12 L138.72,83.8 C137.479994,85.000006 136.200007,86.099995 134.88,87.1 C133.559993,88.100005 132.150008,88.9599964 130.65,89.68 C129.149993,90.4000036 127.530009,90.959998 125.79,91.36 C124.049991,91.760002 122.16001,91.96 120.12,91.96 C116.759983,91.96 113.770013,91.3800058 111.15,90.22 C108.529987,89.0599942 106.340009,87.4400104 104.58,85.36 C102.819991,83.2799896 101.480005,80.8000144 100.56,77.92 C99.6399954,75.0399856 99.18,71.8800172 99.18,68.44 L99.18,29.14 L115.74,29.14 L115.74,68.44 C115.74,71.8800172 116.529992,74.5499905 118.11,76.45 C119.690008,78.3500095 122.039984,79.3 125.16,79.3 C127.480012,79.3 129.65999,78.7900051 131.7,77.77 C133.74001,76.7499949 135.679991,75.3600088 137.52,73.6 L137.52,29.14 L154.08,29.14 L154.08,29.14 Z M183.12,36.34 C184.360006,35.139994 185.649993,34.040005 186.99,33.04 C188.330007,32.039995 189.749992,31.1800036 191.25,30.46 C192.750007,29.7399964 194.369991,29.180002 196.11,28.78 C197.850009,28.379998 199.73999,28.18 201.78,28.18 C205.140017,28.18 208.119987,28.7599942 210.72,29.92 C213.320013,31.0800058 215.509991,32.6999896 217.29,34.78 C219.070009,36.8600104 220.409996,39.3399856 221.31,42.22 C222.210004,45.1000144 222.66,48.2599828 222.66,51.7 L222.66,91 L206.16,91 L206.16,51.7 C206.16,48.2599828 205.360008,45.5900095 203.76,43.69 C202.159992,41.7899905 199.800016,40.84 196.68,40.84 C194.359988,40.84 192.18001,41.339995 190.14,42.34 C188.09999,43.340005 186.160009,44.739991 184.32,46.54 L184.32,91 L167.76,91 L167.76,29.14 L177.96,29.14 C180.04001,29.14 181.419997,30.0999904 182.1,32.02 L183.12,36.34 L183.12,36.34 Z M251.16,36.34 C252.400006,35.139994 253.689993,34.040005 255.03,33.04 C256.370007,32.039995 257.789993,31.1800036 259.29,30.46 C260.790008,29.7399964 262.409991,29.180002 264.15,28.78 C265.890009,28.379998 267.77999,28.18 269.82,28.18 C273.180017,28.18 276.159987,28.7599942 278.76,29.92 C281.360013,31.0800058 283.549991,32.6999896 285.33,34.78 C287.110009,36.8600104 288.449996,39.3399856 289.35,42.22 C290.250005,45.1000144 290.7,48.2599828 290.7,51.7 L290.7,91 L274.2,91 L274.2,51.7 C274.2,48.2599828 273.400008,45.5900095 271.8,43.69 C270.199992,41.7899905 267.840016,40.84 264.72,40.84 C262.399988,40.84 260.22001,41.339995 258.18,42.34 C256.13999,43.340005 254.200009,44.739991 252.36,46.54 L252.36,91 L235.8,91 L235.8,29.14 L246,29.14 C248.08001,29.14 249.459997,30.0999904 250.14,32.02 L251.16,36.34 L251.16,36.34 Z M343.08,52.78 C343.08,51.0599914 342.850002,49.4200078 342.39,47.86 C341.929998,46.2999922 341.200005,44.920006 340.2,43.72 C339.199995,42.519994 337.940008,41.5700035 336.42,40.87 C334.899992,40.1699965 333.080011,39.82 330.96,39.82 C326.99998,39.82 323.900011,40.9399888 321.66,43.18 C319.419989,45.4200112 317.960003,48.6199792 317.28,52.78 L343.08,52.78 L343.08,52.78 Z M317.04,62.62 C317.560003,68.420029 319.209986,72.6599866 321.99,75.34 C324.770014,78.0200134 328.399978,79.36 332.88,79.36 C335.160011,79.36 337.129992,79.0900027 338.79,78.55 C340.450008,78.0099973 341.909994,77.4100033 343.17,76.75 C344.430006,76.0899967 345.569995,75.4900027 346.59,74.95 C347.610005,74.4099973 348.619995,74.14 349.62,74.14 C350.900006,74.14 351.899996,74.6199952 352.62,75.58 L357.42,81.58 C355.659991,83.6200102 353.720011,85.3099933 351.6,86.65 C349.479989,87.9900067 347.280011,89.0499961 345,89.83 C342.719989,90.6100039 340.420012,91.1499985 338.1,91.45 C335.779988,91.7500015 333.540011,91.9 331.38,91.9 C327.059978,91.9 323.030019,91.1900071 319.29,89.77 C315.549981,88.3499929 312.290014,86.2500139 309.51,83.47 C306.729986,80.6899861 304.540008,77.2400206 302.94,73.12 C301.339992,68.9999794 300.54,64.2200272 300.54,58.78 C300.54,54.579979 301.229993,50.6200186 302.61,46.9 C303.990007,43.1799814 305.979987,39.9400138 308.58,37.18 C311.180013,34.4199862 314.339981,32.2300081 318.06,30.61 C321.780019,28.9899919 325.979977,28.18 330.66,28.18 C334.62002,28.18 338.269983,28.8099937 341.61,30.07 C344.950017,31.3300063 347.829988,33.159988 350.25,35.56 C352.670012,37.960012 354.549993,40.9099825 355.89,44.41 C357.230007,47.9100175 357.9,51.8999776 357.9,56.38 C357.9,57.6200062 357.840001,58.639996 357.72,59.44 C357.599999,60.240004 357.400001,60.8799976 357.12,61.36 C356.839999,61.8400024 356.460002,62.1699991 355.98,62.35 C355.499998,62.5300009 354.880004,62.62 354.12,62.62 L317.04,62.62 L317.04,62.62 Z M383.7,39.34 C385.66001,35.8199824 387.919987,33.0400102 390.48,31 C393.040013,28.9599898 396.039983,27.94 399.48,27.94 C402.280014,27.94 404.559991,28.5999934 406.32,29.92 L405.24,42.16 C405.039999,42.960004 404.730002,43.5099985 404.31,43.81 C403.889998,44.1100015 403.320004,44.26 402.6,44.26 C401.959997,44.26 401.040006,44.1700009 399.84,43.99 C398.639994,43.8099991 397.520005,43.72 396.48,43.72 C394.959992,43.72 393.610006,43.9399978 392.43,44.38 C391.249994,44.8200022 390.200005,45.439996 389.28,46.24 C388.359995,47.040004 387.530004,48.0199942 386.79,49.18 C386.049996,50.3400058 385.360003,51.6599926 384.72,53.14 L384.72,91 L368.16,91 L368.16,29.14 L377.94,29.14 C379.620008,29.14 380.779997,29.439997 381.42,30.04 C382.060003,30.640003 382.519999,31.6799926 382.8,33.16 L383.7,39.34 L383.7,39.34 Z" id="Runner" fill="#FFFFFF"></path>
                            <path d="M93.42,90.7716067 L77.16,90.7716067 C74.1199848,90.7716067 71.9200068,89.6116183 70.56,87.2916067 L54,60.5916067 C53.3199966,59.5516015 52.5700041,58.7916091 51.75,58.3116067 C50.9299959,57.8316043 49.720008,57.5916067 48.12,57.5916067 L42,57.5916067 L42,90.7716067 L24,90.7716067 L42.4618874,44.9844339 L54,44.9844322 C54,44.9844322 68.0047913,43.8755445 68.0047913,29.7780914 C68.0047913,16.6806383 52.805027,17.4018209 52.805027,17.4018209 C52.805027,17.4018209 55.9916555,3.80842047 58.1046237,4.00204911 C61.3817024,4.30235476 64.3334828,4.83553921 66.96,5.60160672 C71.2800216,6.86161302 74.8199862,8.61159552 77.58,10.8516067 C80.3400138,13.0916179 82.3599936,15.7615912 83.64,18.8616067 C84.9200064,21.9616222 85.56,25.3715881 85.56,29.0916067 C85.56,31.9716211 85.1500041,34.7015938 84.33,37.2816067 C83.5099959,39.8616196 82.3200078,42.2115961 80.76,44.3316067 C79.1999922,46.4516173 77.2800114,48.3315985 75,49.9716067 C72.7199886,51.6116149 70.1200146,52.9316017 67.2,53.9316067 C68.3600058,54.5716099 69.439995,55.3416022 70.44,56.2416067 C71.440005,57.1416112 72.339996,58.2116005 73.14,59.4516067 L93.42,90.7716067 L93.42,90.7716067 Z" id="R" fill="#FFFFFF"></path>
                            <path d="M15.386,86.768 C14.6513297,88.701343 13.4816747,90.1609951 11.877,91.147 C10.2723253,92.1330049 8.63867498,92.626 6.976,92.626 L0.19,92.626 L33.656,6.032 C34.3133366,4.2919913 35.3573262,2.9386715 36.788,1.972 C38.2186738,1.0053285 39.8619907,0.522 41.718,0.522 L48.562,0.522 L15.386,86.768 L15.386,86.768 Z" id="/-shape" fill="#FCD872"></path>
                        </g>
                    </g>
                </g>
            </g>
        </g>
    </g>
</svg>