<?xml version="1.0" encoding="UTF-8" standalone="no"?>
<svg width="94px" height="93px" viewBox="0 0 94 93" version="1.1" xmlns="http://www.w3.org/2000/svg" xmlns:xlink="http://www.w3.org/1999/xlink">
    <!-- Generator: Sketch 3.6.1 (26313) - http://www.bohemiancoding.com/sketch -->
    <title>logo-small</title>
    <desc>Created with Sketch.</desc>
    <defs></defs>
    <g id="Page-1" stroke="none" stroke-width="1" fill="none" fill-rule="evenodd">
        <g id="logo-small">
            <g id="Page-1">
                <g id="Sketch-Runner-Icon">
                    <g id="logo-small">
                        <path d="M93.54,90 L77.28,90 C74.2399848,90 72.0400068,88.8400116 70.68,86.52 L54.12,59.82 C53.4399966,58.7799948 52.6900041,58.0200024 51.87,57.54 C51.0499959,57.0599976 49.840008,56.82 48.24,56.82 L42.12,56.82 L42.12,90 L24.12,90 L42.5818874,44.2128271 L54.12,44.2128255 C54.12,44.2128255 68.1247913,43.1039378 68.1247913,29.0064847 C68.1247913,15.9090316 52.925027,16.6302142 52.925027,16.6302142 C52.925027,16.6302142 56.1116555,3.03681375 58.2246237,3.23044239 C61.5017024,3.53074804 64.4534828,4.0639325 67.08,4.83 C71.4000216,6.0900063 74.9399862,7.8399888 77.7,10.08 C80.4600138,12.3200112 82.4799936,14.9899845 83.76,18.09 C85.0400064,21.1900155 85.68,24.5999814 85.68,28.32 C85.68,31.2000144 85.2700041,33.9299871 84.45,36.51 C83.6299959,39.0900129 82.4400078,41.4399894 80.88,43.56 C79.3199922,45.6800106 77.4000114,47.5599918 75.12,49.2 C72.8399886,50.8400082 70.2400146,52.159995 67.32,53.16 C68.4800058,53.8000032 69.559995,54.5699955 70.56,55.47 C71.560005,56.3700045 72.459996,57.4399938 73.26,58.68 L93.54,90 L93.54,90 Z" id="R" fill="#FFFFFF"></path>
                        <path d="M15.196,86.246 C14.4613297,88.179343 13.2916747,89.6389951 11.687,90.625 C10.0823253,91.6110049 8.44867498,92.104 6.786,92.104 L0,92.104 L33.466,5.51 C34.1233366,3.7699913 35.1673262,2.4166715 36.598,1.45 C38.0286738,0.4833285 39.6719907,0 41.528,0 L48.372,0 L15.196,86.246 L15.196,86.246 Z" id="/-shape" fill="#FCD872"></path>
                    </g>
                </g>
            </g>
        </g>
    </g>
</svg>