<?xml version="1.0" encoding="UTF-8" standalone="no"?>
<svg width="48px" height="43px" viewBox="0 0 48 43" version="1.1" xmlns="http://www.w3.org/2000/svg" xmlns:xlink="http://www.w3.org/1999/xlink">
    <!-- Generator: Sketch 3.6.1 (26313) - http://www.bohemiancoding.com/sketch -->
    <title>twitter</title>
    <desc>Created with Sketch.</desc>
    <defs></defs>
    <g id="Page-1" stroke="none" stroke-width="1" fill="none" fill-rule="evenodd">
        <path d="M35.1266303,0 C38.1896303,0 40.9516303,1.289 42.8926303,3.359 C44.5016303,3.402 44.6736303,3.418 45.4516303,3.418 C45.9196303,3.418 46.6076303,3.414 47.9586303,3.402 C47.0996303,6.418 46.8726303,7.035 45.7716303,10.5 C45.7906303,10.957 45.8026303,11.414 45.8026303,11.875 C45.8026303,25.933 35.0996303,42.148 15.5296303,42.148 C6.15863029,42.148 0.896630286,37.515 1.75563029,37.515 C6.74063029,37.515 11.3306303,35.816 14.9706303,32.961 C10.3146303,32.875 -6.63836971,22.105 2.82663029,1.945 C8.07663029,8.383 15.9156303,12.617 24.7596303,13.062 C24.5766303,12.285 24.4826303,11.472 24.4826303,10.636 C24.4826303,4.762 29.2476303,0 35.1266303,0 L35.1266303,0 Z" id="twitter" fill="#FFFFFF"></path>
    </g>
</svg>