<svg width="407" height="93" viewBox="0 0 407 93" xmlns="http://www.w3.org/2000/svg"><title>logo-big</title><g fill="none" fill-rule="evenodd"><path d="M154.08 29.14V91h-10.2c-2.12 0-3.48-.96-4.08-2.88l-1.08-4.32c-1.24 1.2-2.52 2.3-3.84 3.3-1.32 1-2.73 1.86-4.23 2.58-1.5.72-3.12 1.28-4.86 1.68-1.74.4-3.63.6-5.67.6-3.36 0-6.35-.58-8.97-1.74-2.62-1.16-4.81-2.78-6.57-4.86-1.76-2.08-3.1-4.56-4.02-7.44-.92-2.88-1.38-6.04-1.38-9.48v-39.3h16.56v39.3c0 3.44.79 6.11 2.37 8.01 1.58 1.9 3.93 2.85 7.05 2.85 2.32 0 4.5-.51 6.54-1.53s3.98-2.41 5.82-4.17V29.14h16.56zm29.04 7.2c1.24-1.2 2.53-2.3 3.87-3.3 1.34-1 2.76-1.86 4.26-2.58s3.12-1.28 4.86-1.68c1.74-.4 3.63-.6 5.67-.6 3.36 0 6.34.58 8.94 1.74 2.6 1.16 4.79 2.78 6.57 4.86 1.78 2.08 3.12 4.56 4.02 7.44.9 2.88 1.35 6.04 1.35 9.48V91h-16.5V51.7c0-3.44-.8-6.11-2.4-8.01-1.6-1.9-3.96-2.85-7.08-2.85-2.32 0-4.5.5-6.54 1.5s-3.98 2.4-5.82 4.2V91h-16.56V29.14h10.2c2.08 0 3.46.96 4.14 2.88l1.02 4.32zm68.04 0c1.24-1.2 2.53-2.3 3.87-3.3 1.34-1 2.76-1.86 4.26-2.58s3.12-1.28 4.86-1.68c1.74-.4 3.63-.6 5.67-.6 3.36 0 6.34.58 8.94 1.74 2.6 1.16 4.79 2.78 6.57 4.86 1.78 2.08 3.12 4.56 4.02 7.44.9 2.88 1.35 6.04 1.35 9.48V91h-16.5V51.7c0-3.44-.8-6.11-2.4-8.01-1.6-1.9-3.96-2.85-7.08-2.85-2.32 0-4.5.5-6.54 1.5s-3.98 2.4-5.82 4.2V91H235.8V29.14H246c2.08 0 3.46.96 4.14 2.88l1.02 4.32zm91.92 16.44c0-1.72-.23-3.36-.69-4.92-.46-1.56-1.19-2.94-2.19-4.14-1-1.2-2.26-2.15-3.78-2.85-1.52-.7-3.34-1.05-5.46-1.05-3.96 0-7.06 1.12-9.3 3.36-2.24 2.24-3.7 5.44-4.38 9.6h25.8zm-26.04 9.84c.52 5.8 2.17 10.04 4.95 12.72 2.78 2.68 6.41 4.02 10.89 4.02 2.28 0 4.25-.27 5.91-.81 1.66-.54 3.12-1.14 4.38-1.8 1.26-.66 2.4-1.26 3.42-1.8s2.03-.81 3.03-.81c1.28 0 2.28.48 3 1.44l4.8 6c-1.76 2.04-3.7 3.73-5.82 5.07-2.12 1.34-4.32 2.4-6.6 3.18-2.28.78-4.58 1.32-6.9 1.62-2.32.3-4.56.45-6.72.45-4.32 0-8.35-.71-12.09-2.13s-7-3.52-9.78-6.3c-2.78-2.78-4.97-6.23-6.57-10.35-1.6-4.12-2.4-8.9-2.4-14.34 0-4.2.69-8.16 2.07-11.88 1.38-3.72 3.37-6.96 5.97-9.72 2.6-2.76 5.76-4.95 9.48-6.57 3.72-1.62 7.92-2.43 12.6-2.43 3.96 0 7.61.63 10.95 1.89 3.34 1.26 6.22 3.09 8.64 5.49 2.42 2.4 4.3 5.35 5.64 8.85 1.34 3.5 2.01 7.49 2.01 11.97 0 1.24-.06 2.26-.18 3.06-.12.8-.32 1.44-.6 1.92-.28.48-.66.81-1.14.99-.48.18-1.1.27-1.86.27h-37.08zm66.66-23.28c1.96-3.52 4.22-6.3 6.78-8.34 2.56-2.04 5.56-3.06 9-3.06 2.8 0 5.08.66 6.84 1.98l-1.08 12.24c-.2.8-.51 1.35-.93 1.65-.42.3-.99.45-1.71.45-.64 0-1.56-.09-2.76-.27-1.2-.18-2.32-.27-3.36-.27-1.52 0-2.87.22-4.05.66a10.17 10.17 0 0 0-3.15 1.86c-.92.8-1.75 1.78-2.49 2.94-.74 1.16-1.43 2.48-2.07 3.96V91h-16.56V29.14h9.78c1.68 0 2.84.3 3.48.9.64.6 1.1 1.64 1.38 3.12l.9 6.18zM93.42 90.772H77.16c-3.04 0-5.24-1.16-6.6-3.48L54 60.592c-.68-1.04-1.43-1.8-2.25-2.28-.82-.48-2.03-.72-3.63-.72H42v33.18H24l18.462-45.788H54s14.005-1.108 14.005-15.206c0-13.097-15.2-12.376-15.2-12.376s3.187-13.594 5.3-13.4c3.277.3 6.228.834 8.855 1.6 4.32 1.26 7.86 3.01 10.62 5.25 2.76 2.24 4.78 4.91 6.06 8.01 1.28 3.1 1.92 6.51 1.92 10.23 0 2.88-.41 5.61-1.23 8.19-.82 2.58-2.01 4.93-3.57 7.05s-3.48 4-5.76 5.64c-2.28 1.64-4.88 2.96-7.8 3.96 1.16.64 2.24 1.41 3.24 2.31 1 .9 1.9 1.97 2.7 3.21l20.28 31.32z" fill="#FFF"/><path d="M15.386 86.768c-.735 1.933-1.904 3.393-3.509 4.379-1.605.986-3.238 1.479-4.901 1.479H.19L33.656 6.032c.657-1.74 1.701-3.093 3.132-4.06 1.43-.967 3.074-1.45 4.93-1.45h6.844L15.386 86.768z" fill="#FCD872"/></g></svg>