<svg width="94" height="93" viewBox="0 0 94 93" xmlns="http://www.w3.org/2000/svg"><title>logo-small</title><g fill="none" fill-rule="evenodd"><path d="M93.54 90H77.28c-3.04 0-5.24-1.16-6.6-3.48l-16.56-26.7c-.68-1.04-1.43-1.8-2.25-2.28-.82-.48-2.03-.72-3.63-.72h-6.12V90h-18l18.462-45.787H54.12s14.005-1.11 14.005-15.207c0-13.097-15.2-12.376-15.2-12.376s3.187-13.593 5.3-13.4c3.277.3 6.228.834 8.855 1.6 4.32 1.26 7.86 3.01 10.62 5.25 2.76 2.24 4.78 4.91 6.06 8.01 1.28 3.1 1.92 6.51 1.92 10.23 0 2.88-.41 5.61-1.23 8.19-.82 2.58-2.01 4.93-3.57 7.05s-3.48 4-5.76 5.64c-2.28 1.64-4.88 2.96-7.8 3.96 1.16.64 2.24 1.41 3.24 2.31 1 .9 1.9 1.97 2.7 3.21L93.54 90z" fill="#FFF"/><path d="M15.196 86.246c-.735 1.933-1.904 3.393-3.509 4.379-1.605.986-3.238 1.479-4.901 1.479H0L33.466 5.51c.657-1.74 1.701-3.093 3.132-4.06C38.028.483 39.672 0 41.528 0h6.844L15.196 86.246z" fill="#FCD872"/></g></svg>