<svg width="48" height="43" viewBox="0 0 48 43" xmlns="http://www.w3.org/2000/svg"><title>twitter</title><path d="M35.127 0c3.063 0 5.825 1.289 7.766 3.359 1.609.043 1.78.059 2.559.059.468 0 1.156-.004 2.507-.016-.86 3.016-1.086 3.633-2.187 7.098.019.457.03.914.03 1.375 0 14.058-10.702 30.273-30.272 30.273-9.371 0-14.633-4.633-13.774-4.633a21.34 21.34 0 0 0 13.215-4.554C10.315 32.875-6.64 22.105 2.827 1.945c5.25 6.438 13.089 10.672 21.933 11.117a10.577 10.577 0 0 1-.277-2.426C24.483 4.762 29.248 0 35.127 0z" fill="#FFF" fill-rule="evenodd"/></svg>